<?xml version="1.0" encoding="UTF-8" standalone="no"?>
<!-- Created with Inkscape (http://www.inkscape.org/) -->

<svg
   xmlns:dc="http://purl.org/dc/elements/1.1/"
   xmlns:cc="http://creativecommons.org/ns#"
   xmlns:rdf="http://www.w3.org/1999/02/22-rdf-syntax-ns#"
   xmlns:svg="http://www.w3.org/2000/svg"
   xmlns="http://www.w3.org/2000/svg"
   xmlns:sodipodi="http://sodipodi.sourceforge.net/DTD/sodipodi-0.dtd"
   xmlns:inkscape="http://www.inkscape.org/namespaces/inkscape"
   id="svg3188"
   height="59.881889"
   width="301.18109"
   version="1.1"
   inkscape:version="0.48.3.1 r9886"
   sodipodi:docname="logoCY01_cropped.svg"
   inkscape:export-filename="/home/rene/Documents/logoCY01_cropped.png"
   inkscape:export-xdpi="600"
   inkscape:export-ydpi="600">
  <defs
     id="defs27" />
  <sodipodi:namedview
     pagecolor="#ffffff"
     bordercolor="#666666"
     borderopacity="1"
     objecttolerance="10"
     gridtolerance="10"
     guidetolerance="10"
     inkscape:pageopacity="0"
     inkscape:pageshadow="2"
     inkscape:window-width="847"
     inkscape:window-height="752"
     id="namedview25"
     showgrid="false"
     units="cm"
     inkscape:zoom="0.57478632"
     inkscape:cx="-21.747214"
     inkscape:cy="30"
     inkscape:window-x="1539"
     inkscape:window-y="104"
     inkscape:window-maximized="0"
     inkscape:current-layer="layer1" />
  <metadata
     id="metadata3193">
    <rdf:RDF>
      <cc:Work
         rdf:about="">
        <dc:format>image/svg+xml</dc:format>
        <dc:type
           rdf:resource="http://purl.org/dc/dcmitype/StillImage" />
        <dc:title></dc:title>
      </cc:Work>
    </rdf:RDF>
  </metadata>
  <g
     id="layer1"
     transform="translate(0,-0.11811274)">
    <g
       id="g60"
       transform="matrix(0.30598246,0,0,-0.30598246,22.368787,15.03964)"
       style="fill:#cfb549;fill-opacity:1">
      <path
         id="path62"
         d="m 0,0 c 0,0 -7.605,16.582 -17.086,16.582 -11.484,0 -15.633,-19.67 -15.633,-63.914 0,-49.21 3.891,-69.015 15.633,-69.015 8.695,0 17.086,16.582 17.086,16.582 l 10.57,-6.726 c 0,0 -9.011,-22.02 -28.699,-22.02 -33.199,0 -33.932,46.371 -33.932,81.39 0,25.793 1.307,75.867 33.932,75.867 19.57,0 28.699,-22.019 28.699,-22.019 L 0,-0.001 z"
         inkscape:connector-curvature="0"
         style="fill:#cfb549;fill-rule:nonzero;fill-opacity:1" />
    </g>
    <g
       id="g64"
       transform="matrix(0.30598246,0,0,-0.30598246,66.329867,50.63611)"
       style="fill:#cfb549;fill-opacity:1">
      <path
         id="path66"
         d="m 0,0 4.688,0 c 10.195,0 21.527,15.094 21.527,69.003 0,45.082 -11.332,63.914 -21.527,63.914 H 0 V -0.003 z m -20.098,145.08 24.012,0 c 26.356,0 42.012,-20.332 42.012,-74.648 0,-68.359 -15.656,-82.609 -42.012,-82.609 h -24.012 v 157.26 z"
         inkscape:connector-curvature="0"
         style="fill:#cfb549;fill-rule:nonzero;fill-opacity:1" />
    </g>
    <g
       id="g68"
       transform="matrix(0.30598246,0,0,-0.30598246,94.216107,28.102459)"
       style="fill:#cfb549;fill-opacity:1">
      <path
         id="path70"
         d="m 0,0 20.227,0 0.117,-12.059 -20.344,0 0,-61.585 39.094,0 0,-12.187 -59.239,0 0,157.27 59.239,0 0,-12.181 L 0,59.273 V 0 z"
         inkscape:connector-curvature="0"
         style="fill:#cfb549;fill-rule:nonzero;fill-opacity:1" />
    </g>
    <g
       id="g72"
       transform="matrix(0.30598246,0,0,-0.30598246,240.76677,29.629987)">
      <path
         id="path74"
         d="m 0,0 c 0,-54.776 7.969,-69.343 15.563,-69.343 7.875,0 15.585,14.567 15.585,69.343 0,46.764 -7.71,64.207 -15.585,64.207 C 7.969,64.207 0,46.764 0,0 m 50.59,1.641 c 0,-39.824 -3.434,-83.218 -35.133,-83.218 -31.488,0 -34.898,43.394 -34.898,83.218 0,30.339 3.41,74.789 34.898,74.789 31.699,0 35.133,-44.45 35.133,-74.789"
         inkscape:connector-curvature="0"
         style="fill:#231f20;fill-rule:nonzero" />
    </g>
    <g
       id="g76"
       transform="matrix(0.30598246,0,0,-0.30598246,268.24602,6.2438385)">
      <path
         id="path78"
         d="M 0,0 14.426,-89.03 27.117,0 38.309,0 53.871,-88.972 66.164,0 h 15.27 L 59.695,-158.01 H 48.293 L 30.738,-55.94 16.418,-158.01 H 5.063 L -20.648,0 H 0 z"
         inkscape:connector-curvature="0"
         style="fill:#231f20;fill-rule:nonzero" />
    </g>
    <g
       id="g80"
       transform="matrix(0.30598246,0,0,-0.30598246,141.21069,34.54333)">
      <path
         id="path82"
         d="m 0,0 -23.098,92.487 19.231,0 15.392,-60.908 16.166,60.908 15.129,0 -22.64,-85.96 0,-72.035 -20.18,0 V 0 z"
         inkscape:connector-curvature="0"
         style="fill:#231f20;fill-rule:nonzero" />
    </g>
    <g
       id="g84"
       transform="matrix(0.30598246,0,0,-0.30598246,36.543177,29.518822)"
       style="fill:#cfb549;fill-opacity:1">
      <path
         id="path86"
         d="m 0,0 c 0,-54.519 7.934,-69.015 15.492,-69.015 7.828,0 15.504,14.496 15.504,69.015 0,46.547 -7.676,63.902 -15.504,63.902 C 7.934,63.902 0,46.547 0,0 m 50.332,1.629 c 0,-39.636 -3.387,-82.819 -34.969,-82.819 -31.324,0 -34.711,43.183 -34.711,82.819 0,30.199 3.387,74.437 34.711,74.437 31.582,0 34.969,-44.238 34.969,-74.437"
         inkscape:connector-curvature="0"
         style="fill:#cfb549;fill-rule:nonzero;fill-opacity:1" />
    </g>
    <g
       id="g88"
       transform="matrix(0.30598246,0,0,-0.30598246,167.87419,28.206464)">
      <path
         id="path90"
         d="m 0,0 20.32,0 0.118,-12.117 -20.438,0 0,-61.866 39.27,0 0,-12.246 -59.508,0 0,158.01 59.508,0 0,-12.24 L 0,59.561 V 0 z"
         inkscape:connector-curvature="0"
         style="fill:#231f20;fill-rule:nonzero" />
    </g>
    <g
       id="g92"
       transform="matrix(0.30598246,0,0,-0.30598246,187.25867,6.2438385)">
      <path
         id="path94"
         d="m 0,0 20.18,0 0,-145.76 36.445,0 0,-12.234 -56.625,0 v 157.99 z"
         inkscape:connector-curvature="0"
         style="fill:#231f20;fill-rule:nonzero" />
    </g>
    <g
       id="g96"
       transform="matrix(0.30598246,0,0,-0.30598246,211.9554,6.2438385)">
      <path
         id="path98"
         d="m 0,0 20.191,0 0,-145.76 36.446,0 0,-12.234 -56.637,0 v 157.99 z"
         inkscape:connector-curvature="0"
         style="fill:#231f20;fill-rule:nonzero" />
    </g>
  </g>
</svg>
