<?xml version="1.0" encoding="utf-8"?>
<!-- Generator: Adobe Illustrator 18.1.1, SVG Export Plug-In . SVG Version: 6.00 Build 0)  -->
<svg version="1.1" baseProfile="tiny" xmlns="http://www.w3.org/2000/svg" xmlns:xlink="http://www.w3.org/1999/xlink" x="0px"
	 y="0px" viewBox="0 0 400 400" xml:space="preserve">
<g id="Layer_1">
	<rect fill="#40597F" width="400" height="400"/>
</g>
<g id="Layer_2">
	<g>
		<path fill="#FFFFFF" d="M65,208.7v59.1h-9.5V132.2h32.3c16.8,0,29.3,3.1,37.3,9.3c8,6.2,12.1,15.6,12.1,28.1
			c0,9.1-2.4,16.8-7.2,23c-4.8,6.2-12.1,10.7-21.8,13.5l36.8,61.8h-11.3l-35-59.1H65z M65,200.6h25.9c11.4,0,20.3-2.6,26.6-7.7
			s9.5-12.6,9.5-22.6c0-10.3-3.1-17.8-9.3-22.5c-6.2-4.7-16.3-7.1-30.2-7.1H65V200.6z"/>
		<path fill="#FFFFFF" d="M230.6,267.8h-74.1V132.2h74.1v8.7h-64.7v51.3h61v8.7h-61v58.2h64.7V267.8z"/>
		<path fill="#FFFFFF" d="M344.4,267.8h-10.9l-40.1-63.3l-40.8,63.3h-10.5l45.6-70.7l-41.5-64.9H257l36.6,58.1l37.2-58.1h10.1
			l-42,64.8L344.4,267.8z"/>
	</g>
</g>
</svg>
